<?xml version="1.0" encoding="UTF-8"?><svg id="Layer_1" xmlns="http://www.w3.org/2000/svg" viewBox="0 0 500 500"><defs><style>.cls-1{fill:#f2f7ee;}.cls-2{fill:#352727;}</style></defs><rect class="cls-1" width="500" height="500"/><path class="cls-2" d="m85.09,341.75v28.47h-3.7v-28.47h3.7Z"/><path class="cls-2" d="m108.39,370.22v-13.38c0-.27-.03-.7-.08-1.3-.05-.6-.22-1.19-.51-1.79-.29-.6-.74-1.12-1.36-1.57-.62-.45-1.5-.67-2.64-.67-.71,0-1.39.12-2.05.37-.67.24-1.26.62-1.77,1.14-.51.51-.92,1.15-1.22,1.91-.3.76-.45,1.67-.45,2.73v12.57h-3.46v-20.33h3.46v2.6h.16l.65-.65c.95-.95,1.91-1.59,2.89-1.93.98-.34,1.86-.49,2.64-.47,1.79,0,3.17.31,4.15.92s1.69,1.33,2.13,2.15c.45.83.71,1.67.79,2.52.08.85.12,1.53.12,2.01v13.18h-3.46Z"/><path class="cls-2" d="m116.45,351.51v-1.63h3.54v-6.26h3.46v6.26h4.92v1.63h-4.92v13.5c0,.32.01.7.04,1.12s.11.81.24,1.18c.14.37.35.67.63.91s.68.37,1.2.37c.65,0,1.19-.24,1.63-.73.43-.49.79-1.02,1.06-1.59l1.91,1.95c-1.33,1.33-2.83,1.99-4.51,1.99-.7,0-1.4-.12-2.07-.37-.68-.24-1.28-.62-1.81-1.12-.53-.5-.96-1.14-1.28-1.93-.33-.79-.49-1.71-.49-2.77v-12.53h-3.54Z"/><path class="cls-2" d="m136.37,360.94c0,1.65.24,3.01.73,4.07.49,1.06,1.09,1.88,1.83,2.48.73.6,1.52,1.01,2.37,1.24.85.23,1.66.35,2.41.35.68,0,1.29-.07,1.85-.22.55-.15,1.09-.36,1.6-.63.51-.27,1.02-.61,1.52-1.02s1.03-.85,1.6-1.34l1.3,1.3c-1.09,1.14-2.36,2.01-3.82,2.62-1.46.61-3.06.92-4.8.92s-3.34-.31-4.66-.92-2.4-1.42-3.25-2.44c-.86-1.02-1.49-2.17-1.91-3.46-.42-1.29-.63-2.61-.63-3.97,0-1.63.24-3.08.73-4.37s1.16-2.39,2.03-3.3c.87-.91,1.89-1.6,3.05-2.07,1.16-.47,2.44-.71,3.82-.71,1.3,0,2.53.22,3.7.65s2.19,1.08,3.07,1.95c.88.87,1.58,1.97,2.09,3.29s.77,2.9.77,4.72v.85h-15.41Zm11.83-1.63c0-2.63-.53-4.7-1.6-6.2-1.06-1.5-2.55-2.26-4.46-2.26-1,0-1.86.24-2.59.71-.73.47-1.33,1.1-1.8,1.89-.47.79-.82,1.69-1.05,2.71-.23,1.02-.34,2.07-.34,3.15h11.83Z"/><path class="cls-2" d="m171.59,366.96h-.16c-.46,1.3-1.25,2.25-2.38,2.85-1.13.6-2.45.9-3.97.9-1.38,0-2.64-.25-3.76-.75-1.12-.5-2.09-1.22-2.91-2.16-.81-.94-1.44-2.06-1.89-3.38-.45-1.32-.67-2.79-.67-4.41s.22-3.05.67-4.35c.45-1.3,1.08-2.41,1.89-3.33.81-.92,1.79-1.63,2.93-2.14,1.14-.5,2.4-.75,3.78-.75,1.73,0,3.14.32,4.21.96,1.07.64,1.77,1.53,2.09,2.66h.16v-3.17h3.46v19.97c0,1.36-.13,2.66-.39,3.92-.26,1.26-.74,2.38-1.45,3.36-.71.98-1.7,1.76-2.97,2.34-1.28.58-2.94.87-5.01.87-1.11,0-2.1-.14-2.97-.43-.87-.28-1.62-.62-2.24-1.02-.62-.39-1.14-.79-1.55-1.18-.41-.39-.7-.71-.89-.96l2.22-2.03c.73,1.22,1.54,2.2,2.43,2.93.88.73,2.05,1.1,3.49,1.1.82,0,1.59-.12,2.31-.37s1.35-.64,1.88-1.18c.53-.54.95-1.25,1.25-2.12s.45-1.93.45-3.17v-4.96Zm0-8.42c0-.92-.12-1.82-.37-2.68-.25-.87-.61-1.63-1.08-2.3-.48-.66-1.07-1.19-1.77-1.59-.71-.39-1.51-.59-2.41-.59-.41,0-.97.09-1.69.26-.72.18-1.43.56-2.12,1.16s-1.3,1.46-1.82,2.58c-.52,1.13-.77,2.64-.77,4.54,0,1.79.21,3.25.63,4.39.42,1.14.95,2.02,1.59,2.64.64.62,1.33,1.05,2.08,1.28.75.23,1.45.35,2.1.35.73,0,1.44-.16,2.12-.47.68-.31,1.28-.76,1.8-1.36.52-.6.93-1.33,1.24-2.2.31-.87.47-1.87.47-3.01v-3.01Z"/><path class="cls-2" d="m185.01,349.88v3.25h.24c.49-1.22,1.11-2.14,1.87-2.77.76-.62,1.71-.94,2.85-.94.13,0,.34.02.63.06.29.04.6.12.94.24.34.12.68.29,1.02.51.34.22.63.49.88.81l-1.38,2.52c-.24-.35-.63-.73-1.16-1.14s-1.1-.61-1.73-.61c-.46,0-.93.11-1.42.33-.49.22-.94.57-1.34,1.06-.41.49-.74,1.12-1,1.89s-.39,1.72-.39,2.83v12.28h-3.46v-20.33h3.46Z"/><path class="cls-2" d="m204.56,349.43c1.98,0,3.51.28,4.6.83s1.88,1.28,2.38,2.18.79,1.93.88,3.09c.08,1.17.12,2.36.12,3.58v11.1h-3.29v-1.99c-.79.76-1.79,1.36-3.01,1.81-1.22.45-2.44.67-3.66.67s-2.2-.2-3.09-.61c-.89-.41-1.64-.94-2.24-1.59-.6-.65-1.04-1.38-1.34-2.2-.3-.81-.45-1.64-.45-2.48s.16-1.74.49-2.6c.32-.87.81-1.65,1.46-2.34s1.45-1.25,2.4-1.69c.95-.43,2.03-.65,3.25-.65s2.38.24,3.48.71,2,1.15,2.7,2.01v-1.75c0-2.22-.33-3.88-1-4.96s-1.88-1.63-3.65-1.63c-.76,0-1.43.1-2,.29s-1.08.45-1.53.79c-.45.34-.87.76-1.25,1.26-.38.5-.76,1.06-1.14,1.69l-2.09-2.12c.38-.41.78-.81,1.2-1.22.42-.41.93-.77,1.55-1.1.61-.33,1.34-.59,2.18-.79.84-.2,1.86-.31,3.05-.31Zm4.68,12.73c-.14-.32-.33-.7-.59-1.14s-.59-.85-1-1.26c-.41-.41-.9-.75-1.47-1.04-.57-.29-1.25-.43-2.04-.43s-1.51.16-2.16.47c-.65.31-1.21.72-1.65,1.22-.45.5-.8,1.09-1.04,1.77s-.37,1.38-.37,2.11c0,.87.16,1.62.47,2.26.31.64.71,1.18,1.2,1.63.49.45,1.03.78,1.63,1,.6.22,1.17.32,1.71.32s1.04-.09,1.57-.28c.53-.19,1.03-.45,1.51-.79.48-.34.9-.74,1.29-1.2.38-.46.69-.96.94-1.51v-3.13Z"/><path class="cls-2" d="m217.01,351.51v-1.63h3.54v-6.26h3.46v6.26h4.92v1.63h-4.92v13.5c0,.32.01.7.04,1.12s.11.81.24,1.18c.14.37.35.67.63.91s.68.37,1.2.37c.65,0,1.19-.24,1.63-.73.43-.49.79-1.02,1.06-1.59l1.91,1.95c-1.33,1.33-2.83,1.99-4.51,1.99-.7,0-1.4-.12-2.07-.37-.68-.24-1.28-.62-1.81-1.12-.53-.5-.96-1.14-1.28-1.93-.33-.79-.49-1.71-.49-2.77v-12.53h-3.54Z"/><path class="cls-2" d="m235.76,341.91c.43-.43.95-.65,1.54-.65s1.11.22,1.55.65.65.95.65,1.55-.22,1.11-.65,1.54c-.43.43-.95.65-1.55.65s-1.11-.22-1.54-.65c-.43-.43-.65-.95-.65-1.54s.22-1.11.65-1.55Zm3.33,7.97v20.33h-3.46v-20.33h3.46Z"/><path class="cls-2" d="m247.96,349.88l6.79,16.31h.24l6.59-16.31h1.91l-8.22,20.33h-2.44l-8.46-20.33h3.58Z"/><path class="cls-2" d="m270.21,360.94c0,1.65.24,3.01.73,4.07.49,1.06,1.09,1.88,1.82,2.48.73.6,1.52,1.01,2.37,1.24.85.23,1.66.35,2.41.35.68,0,1.29-.07,1.84-.22.55-.15,1.09-.36,1.6-.63.51-.27,1.02-.61,1.52-1.02.5-.41,1.03-.85,1.6-1.34l1.3,1.3c-1.08,1.14-2.36,2.01-3.82,2.62s-3.06.92-4.8.92-3.34-.31-4.66-.92c-1.32-.61-2.4-1.42-3.25-2.44s-1.49-2.17-1.91-3.46-.63-2.61-.63-3.97c0-1.63.24-3.08.73-4.37s1.17-2.39,2.03-3.3c.87-.91,1.88-1.6,3.05-2.07,1.17-.47,2.44-.71,3.82-.71,1.3,0,2.54.22,3.7.65s2.19,1.08,3.07,1.95c.88.87,1.58,1.97,2.1,3.29.51,1.33.77,2.9.77,4.72v.85h-15.41Zm11.83-1.63c0-2.63-.53-4.7-1.59-6.2-1.06-1.5-2.55-2.26-4.46-2.26-1,0-1.86.24-2.59.71-.73.47-1.32,1.1-1.8,1.89-.47.79-.82,1.69-1.05,2.71-.23,1.02-.34,2.07-.34,3.15h11.83Z"/><path class="cls-2" d="m310.47,370.22h-3.7v-28.47h3.7v12.44h17.04v-12.44h3.7v28.47h-3.7v-14.15h-17.04v14.15Z"/><path class="cls-2" d="m341.98,360.94c0,1.65.24,3.01.73,4.07.49,1.06,1.09,1.88,1.82,2.48.73.6,1.52,1.01,2.37,1.24.85.23,1.66.35,2.41.35.68,0,1.29-.07,1.84-.22.55-.15,1.09-.36,1.6-.63.51-.27,1.02-.61,1.52-1.02.5-.41,1.03-.85,1.6-1.34l1.3,1.3c-1.08,1.14-2.36,2.01-3.82,2.62s-3.06.92-4.8.92-3.34-.31-4.66-.92c-1.32-.61-2.4-1.42-3.25-2.44s-1.49-2.17-1.91-3.46-.63-2.61-.63-3.97c0-1.63.24-3.08.73-4.37s1.17-2.39,2.03-3.3c.87-.91,1.88-1.6,3.05-2.07,1.17-.47,2.44-.71,3.82-.71,1.3,0,2.54.22,3.7.65s2.19,1.08,3.07,1.95c.88.87,1.58,1.97,2.1,3.29.51,1.33.77,2.9.77,4.72v.85h-15.41Zm11.83-1.63c0-2.63-.53-4.7-1.59-6.2-1.06-1.5-2.55-2.26-4.46-2.26-1,0-1.86.24-2.59.71-.73.47-1.32,1.1-1.8,1.89-.47.79-.82,1.69-1.05,2.71-.23,1.02-.34,2.07-.34,3.15h11.83Z"/><path class="cls-2" d="m370.16,349.43c1.98,0,3.51.28,4.6.83,1.09.56,1.88,1.28,2.38,2.18s.79,1.93.87,3.09c.08,1.17.12,2.36.12,3.58v11.1h-3.29v-1.99c-.79.76-1.79,1.36-3.01,1.81-1.22.45-2.44.67-3.66.67s-2.2-.2-3.09-.61c-.9-.41-1.64-.94-2.24-1.59-.6-.65-1.04-1.38-1.34-2.2-.3-.81-.45-1.64-.45-2.48s.16-1.74.49-2.6c.33-.87.81-1.65,1.47-2.34.65-.69,1.45-1.25,2.4-1.69.95-.43,2.03-.65,3.25-.65s2.38.24,3.48.71,2,1.15,2.7,2.01v-1.75c0-2.22-.33-3.88-1-4.96s-1.89-1.63-3.65-1.63c-.76,0-1.43.1-2,.29-.57.19-1.08.45-1.53.79-.45.34-.87.76-1.25,1.26-.38.5-.76,1.06-1.14,1.69l-2.09-2.12c.38-.41.78-.81,1.2-1.22.42-.41.94-.77,1.55-1.1.61-.33,1.34-.59,2.18-.79.84-.2,1.86-.31,3.05-.31Zm4.68,12.73c-.14-.32-.33-.7-.59-1.14-.26-.43-.59-.85-1-1.26-.41-.41-.9-.75-1.47-1.04-.57-.29-1.25-.43-2.04-.43s-1.51.16-2.16.47c-.65.31-1.2.72-1.65,1.22-.45.5-.8,1.09-1.04,1.77-.24.68-.37,1.38-.37,2.11,0,.87.16,1.62.47,2.26.31.64.71,1.18,1.2,1.63.49.45,1.04.78,1.63,1,.6.22,1.17.32,1.71.32s1.04-.09,1.57-.28,1.04-.45,1.51-.79c.48-.34.9-.74,1.29-1.2.38-.46.69-.96.94-1.51v-3.13Z"/><path class="cls-2" d="m388.91,370.22h-3.46v-28.47h3.46v28.47Z"/><path class="cls-2" d="m394.2,351.51v-1.63h3.54v-6.26h3.46v6.26h4.92v1.63h-4.92v13.5c0,.32.01.7.04,1.12.03.42.11.81.24,1.18s.35.67.63.91c.29.24.69.37,1.2.37.65,0,1.19-.24,1.63-.73s.79-1.02,1.06-1.59l1.91,1.95c-1.33,1.33-2.83,1.99-4.51,1.99-.71,0-1.4-.12-2.07-.37s-1.28-.62-1.81-1.12c-.53-.5-.96-1.14-1.28-1.93-.32-.79-.49-1.71-.49-2.77v-12.53h-3.54Z"/><path class="cls-2" d="m414.94,341.75v10.9h.16l.45-.57c.92-1.03,1.91-1.73,2.95-2.09s2.04-.55,2.99-.55c.71,0,1.44.1,2.22.28.77.19,1.48.56,2.13,1.1.65.54,1.19,1.3,1.63,2.26s.65,2.2.65,3.72v13.42h-3.46v-12.48c0-.81-.05-1.6-.14-2.36-.1-.76-.29-1.42-.59-1.99-.3-.57-.73-1.02-1.28-1.36-.56-.34-1.29-.51-2.22-.51-1.3,0-2.32.26-3.05.79-.73.53-1.28,1.16-1.65,1.89s-.59,1.49-.67,2.28c-.08.79-.12,1.45-.12,1.99v11.75h-3.46v-28.47h3.46Z"/><path class="cls-2" d="m217.2,414.87c-.35.41-.87.88-1.54,1.42-.68.54-1.52,1.05-2.54,1.52-1.02.48-2.21.88-3.58,1.2-1.37.33-2.92.49-4.66.49-2.74,0-5.1-.43-7.08-1.28-1.98-.85-3.61-1.98-4.88-3.38-1.27-1.4-2.22-3-2.83-4.8-.61-1.8-.91-3.65-.91-5.55,0-2.2.38-4.18,1.14-5.96s1.83-3.29,3.21-4.56c1.38-1.26,3.04-2.23,4.98-2.91,1.94-.68,4.09-1.02,6.45-1.02,1.63,0,3.08.16,4.35.49,1.27.33,2.39.77,3.33,1.34s1.74,1.25,2.38,2.03,1.16,1.64,1.57,2.56h-3.01c-.19-.57-.52-1.13-1-1.69s-1.09-1.05-1.83-1.48c-.75-.43-1.6-.79-2.56-1.06-.96-.27-2.03-.41-3.19-.41-1.71,0-3.29.31-4.74.94-1.45.62-2.7,1.49-3.76,2.6-1.06,1.11-1.88,2.43-2.46,3.97s-.88,3.22-.88,5.06c0,1.73.28,3.4.83,5s1.38,3.01,2.46,4.23c1.08,1.22,2.44,2.2,4.07,2.93s3.5,1.1,5.61,1.1c3.8,0,7.08-1.3,9.84-3.9l1.22,1.1Z"/><path class="cls-2" d="m223.9,409.75c0,1.65.24,3.01.73,4.07.49,1.06,1.09,1.89,1.83,2.48s1.52,1.01,2.37,1.24c.85.23,1.66.35,2.41.35.68,0,1.29-.07,1.85-.22.55-.15,1.09-.36,1.6-.63.51-.27,1.02-.61,1.52-1.02.5-.41,1.03-.85,1.6-1.34l1.3,1.3c-1.09,1.14-2.36,2.01-3.82,2.62-1.46.61-3.06.91-4.8.91s-3.34-.3-4.66-.91-2.4-1.42-3.25-2.44c-.86-1.02-1.49-2.17-1.91-3.46-.42-1.29-.63-2.61-.63-3.97,0-1.63.24-3.08.73-4.37s1.16-2.39,2.03-3.29,1.89-1.6,3.05-2.07c1.16-.47,2.44-.71,3.82-.71,1.3,0,2.53.22,3.7.65s2.19,1.09,3.07,1.95c.88.87,1.58,1.97,2.09,3.3.51,1.33.77,2.9.77,4.72v.85h-15.41Zm11.83-1.63c0-2.63-.53-4.7-1.6-6.2s-2.55-2.26-4.46-2.26c-1,0-1.86.24-2.59.71-.73.48-1.33,1.11-1.8,1.89-.47.79-.82,1.69-1.05,2.7-.23,1.02-.34,2.07-.34,3.15h11.83Z"/><path class="cls-2" d="m258.15,419.02v-13.38c0-.27-.03-.71-.08-1.3s-.22-1.19-.51-1.79c-.29-.6-.74-1.12-1.36-1.57-.62-.45-1.5-.67-2.64-.67-.71,0-1.39.12-2.05.37-.67.24-1.26.62-1.77,1.14-.51.52-.92,1.15-1.22,1.91s-.45,1.67-.45,2.72v12.57h-3.46v-20.33h3.46v2.6h.16l.65-.65c.95-.95,1.91-1.59,2.89-1.93.98-.34,1.86-.49,2.64-.47,1.79,0,3.17.3,4.15.91s1.69,1.33,2.13,2.16c.45.83.71,1.67.79,2.52.08.85.12,1.52.12,2.01v13.18h-3.46Z"/><path class="cls-2" d="m266.2,400.31v-1.63h3.54v-6.26h3.46v6.26h4.92v1.63h-4.92v13.5c0,.33.01.7.04,1.12.03.42.11.81.24,1.18s.35.67.63.92c.29.24.69.37,1.2.37.65,0,1.19-.24,1.63-.73s.79-1.02,1.06-1.59l1.91,1.95c-1.33,1.33-2.83,1.99-4.51,1.99-.71,0-1.4-.12-2.07-.37s-1.28-.62-1.81-1.12-.96-1.15-1.28-1.93c-.32-.79-.49-1.71-.49-2.77v-12.52h-3.54Z"/><path class="cls-2" d="m286.94,398.68v3.25h.24c.49-1.22,1.11-2.14,1.87-2.77.76-.62,1.71-.93,2.85-.93.14,0,.35.02.63.06.28.04.6.12.93.24.34.12.68.29,1.02.51.34.22.63.49.87.81l-1.38,2.52c-.24-.35-.63-.73-1.16-1.14-.53-.41-1.11-.61-1.73-.61-.46,0-.94.11-1.42.33-.49.22-.94.57-1.34,1.06-.41.49-.74,1.12-1,1.89-.26.77-.39,1.72-.39,2.83v12.28h-3.46v-20.33h3.46Z"/><path class="cls-2" d="m301.66,409.75c0,1.65.24,3.01.73,4.07.49,1.06,1.09,1.89,1.82,2.48.73.6,1.52,1.01,2.37,1.24s1.66.35,2.41.35c.68,0,1.29-.07,1.84-.22.55-.15,1.09-.36,1.6-.63.51-.27,1.02-.61,1.52-1.02.5-.41,1.03-.85,1.6-1.34l1.3,1.3c-1.08,1.14-2.36,2.01-3.82,2.62s-3.06.91-4.8.91-3.34-.3-4.66-.91c-1.32-.61-2.4-1.42-3.25-2.44-.85-1.02-1.49-2.17-1.91-3.46s-.63-2.61-.63-3.97c0-1.63.24-3.08.73-4.37s1.17-2.39,2.03-3.29c.87-.91,1.88-1.6,3.05-2.07s2.44-.71,3.82-.71c1.3,0,2.54.22,3.7.65s2.19,1.09,3.07,1.95c.88.87,1.58,1.97,2.1,3.3.51,1.33.77,2.9.77,4.72v.85h-15.41Zm11.83-1.63c0-2.63-.53-4.7-1.59-6.2s-2.55-2.26-4.46-2.26c-1,0-1.86.24-2.59.71-.73.48-1.32,1.11-1.8,1.89s-.82,1.69-1.05,2.7c-.23,1.02-.34,2.07-.34,3.15h11.83Z"/><path class="cls-2" d="m63.96,268.29c.1,1.65.48,3.66,1.16,6.03.68,2.37,1.98,4.67,3.92,6.9,1.94,2.23,4.74,4.14,8.43,5.74,3.68,1.6,8.57,2.4,14.67,2.4,7.65,0,13.78-1.45,18.38-4.36,4.6-2.91,6.9-7.51,6.9-13.8,0-5.04-1.45-9.05-4.36-12.06-2.9-3-6.56-5.54-10.97-7.63-4.41-2.08-9.18-3.95-14.31-5.59-5.13-1.65-9.9-3.63-14.31-5.96-4.41-2.32-8.06-5.23-10.97-8.72-2.9-3.49-4.36-8.09-4.36-13.8,0-4.36.9-8.23,2.69-11.62,1.79-3.39,4.22-6.2,7.28-8.43,3.06-2.23,6.6-3.92,10.62-5.08,4.03-1.16,8.27-1.74,12.73-1.74s8.37.51,12.29,1.53c3.93,1.02,7.44,2.52,10.55,4.5,3.1,1.99,5.67,4.41,7.71,7.26,2.04,2.86,3.35,6.08,3.93,9.66h-9.9c-.78-5.71-3.37-9.9-7.79-12.57-4.42-2.66-9.78-3.99-16.08-3.99-3.78,0-7.13.46-10.04,1.38-2.91.92-5.36,2.13-7.35,3.63s-3.49,3.27-4.51,5.3c-1.02,2.03-1.53,4.21-1.53,6.54,0,4.16,1.5,7.51,4.51,10.02s6.77,4.75,11.29,6.68c4.52,1.94,9.42,3.78,14.71,5.52,5.29,1.74,10.19,3.9,14.71,6.46,4.51,2.57,8.28,5.76,11.29,9.59s4.51,8.74,4.51,14.75c0,4.36-.87,8.33-2.62,11.91-1.75,3.59-4.22,6.64-7.43,9.15-3.2,2.52-7.06,4.46-11.57,5.81s-9.58,2.03-15.21,2.03-10.63-.66-15.28-1.96c-4.66-1.31-8.71-3.15-12.16-5.52-3.45-2.37-6.16-5.25-8.15-8.64s-3.08-7.17-3.27-11.33h9.88Z"/><path class="cls-2" d="m157.67,260.88c0,5.91.87,10.75,2.61,14.53,1.74,3.78,3.91,6.73,6.52,8.86s5.44,3.61,8.48,4.43c3.04.82,5.92,1.23,8.62,1.23,2.42,0,4.61-.26,6.59-.8,1.98-.53,3.89-1.28,5.72-2.25,1.83-.97,3.65-2.18,5.43-3.63,1.79-1.45,3.69-3.05,5.72-4.79l4.64,4.65c-3.87,4.07-8.43,7.19-13.66,9.37-5.23,2.18-10.95,3.27-17.14,3.27s-11.94-1.09-16.64-3.27c-4.7-2.18-8.57-5.08-11.62-8.72-3.05-3.63-5.33-7.75-6.83-12.35-1.5-4.6-2.25-9.32-2.25-14.17,0-5.81.87-11.02,2.62-15.62,1.74-4.6,4.16-8.52,7.26-11.77,3.1-3.24,6.73-5.71,10.9-7.41,4.16-1.69,8.72-2.54,13.66-2.54,4.65,0,9.06.78,13.22,2.32,4.16,1.55,7.82,3.88,10.97,6.98,3.15,3.1,5.64,7.02,7.48,11.77,1.84,4.75,2.76,10.37,2.76,16.85v3.05h-55.07Zm42.28-5.81c0-9.4-1.9-16.78-5.7-22.16-3.8-5.38-9.11-8.06-15.94-8.06-3.56,0-6.64.85-9.24,2.54-2.6,1.7-4.74,3.95-6.42,6.75-1.68,2.81-2.93,6.03-3.75,9.66-.82,3.63-1.23,7.39-1.23,11.26h42.28Z"/><path class="cls-2" d="m238.16,260.88c0,5.91.87,10.75,2.61,14.53,1.74,3.78,3.91,6.73,6.52,8.86s5.44,3.61,8.48,4.43c3.04.82,5.92,1.23,8.62,1.23,2.42,0,4.61-.26,6.59-.8,1.98-.53,3.89-1.28,5.72-2.25,1.83-.97,3.65-2.18,5.43-3.63,1.79-1.45,3.69-3.05,5.72-4.79l4.64,4.65c-3.87,4.07-8.43,7.19-13.66,9.37-5.23,2.18-10.95,3.27-17.14,3.27s-11.94-1.09-16.64-3.27c-4.7-2.18-8.57-5.08-11.62-8.72-3.05-3.63-5.33-7.75-6.83-12.35-1.5-4.6-2.25-9.32-2.25-14.17,0-5.81.87-11.02,2.62-15.62,1.74-4.6,4.16-8.52,7.26-11.77,3.1-3.24,6.73-5.71,10.9-7.41,4.16-1.69,8.72-2.54,13.66-2.54,4.65,0,9.06.78,13.22,2.32,4.16,1.55,7.82,3.88,10.97,6.98,3.15,3.1,5.64,7.02,7.48,11.77,1.84,4.75,2.76,10.37,2.76,16.85v3.05h-55.07Zm42.28-5.81c0-9.4-1.9-16.78-5.7-22.16-3.8-5.38-9.11-8.06-15.94-8.06-3.56,0-6.64.85-9.24,2.54-2.6,1.7-4.74,3.95-6.42,6.75-1.68,2.81-2.93,6.03-3.75,9.66-.82,3.63-1.23,7.39-1.23,11.26h42.28Z"/><path class="cls-2" d="m357.59,294v-47.8c0-.96-.1-2.52-.29-4.65-.19-2.13-.8-4.26-1.82-6.39s-2.64-4-4.87-5.59c-2.23-1.6-5.38-2.4-9.44-2.4-2.52,0-4.97.44-7.34,1.31-2.37.87-4.48,2.23-6.32,4.07-1.84,1.84-3.29,4.12-4.36,6.83-1.07,2.71-1.6,5.96-1.6,9.74v44.89h-12.35v-72.65h12.35v9.3h.58l2.32-2.32c3.39-3.39,6.83-5.69,10.32-6.9,3.49-1.21,6.63-1.77,9.44-1.67,6.39,0,11.33,1.09,14.82,3.27,3.49,2.18,6.03,4.75,7.63,7.7,1.6,2.96,2.54,5.96,2.83,9.01.29,3.05.44,5.45.44,7.19v47.07h-12.35Z"/><path class="cls-2" d="m417.42,219.76c7.07,0,12.55.99,16.43,2.98,3.88,1.99,6.72,4.58,8.51,7.77,1.79,3.2,2.84,6.88,3.13,11.04.29,4.17.44,8.43.44,12.79v39.66h-11.77v-7.12c-2.81,2.71-6.39,4.86-10.75,6.46-4.36,1.6-8.72,2.4-13.08,2.4s-7.85-.73-11.04-2.18c-3.2-1.46-5.86-3.34-7.99-5.67-2.13-2.32-3.73-4.94-4.8-7.85-1.07-2.9-1.6-5.86-1.6-8.86s.58-6.2,1.74-9.3c1.16-3.1,2.9-5.88,5.23-8.35s5.18-4.48,8.57-6.03c3.39-1.55,7.26-2.32,11.62-2.32s8.5.85,12.42,2.54c3.92,1.7,7.14,4.09,9.66,7.19v-6.25c0-7.94-1.19-13.85-3.57-17.72-2.38-3.87-6.73-5.81-13.05-5.81-2.72,0-5.11.34-7.15,1.02-2.04.68-3.87,1.63-5.47,2.83-1.61,1.21-3.09,2.71-4.45,4.5-1.36,1.79-2.72,3.8-4.08,6.03l-7.46-7.55c1.36-1.45,2.79-2.9,4.29-4.36,1.5-1.46,3.34-2.76,5.52-3.92,2.18-1.16,4.77-2.11,7.78-2.83,3.01-.73,6.64-1.09,10.91-1.09Zm16.73,45.48c-.49-1.16-1.19-2.52-2.11-4.07-.92-1.55-2.12-3.05-3.57-4.5-1.46-1.45-3.21-2.69-5.25-3.7-2.04-1.02-4.47-1.53-7.29-1.53s-5.4.56-7.73,1.67c-2.33,1.11-4.3,2.57-5.91,4.36-1.61,1.79-2.85,3.9-3.72,6.32-.88,2.42-1.31,4.94-1.31,7.55,0,3.1.56,5.79,1.68,8.06,1.12,2.28,2.55,4.21,4.3,5.81,1.75,1.6,3.7,2.78,5.84,3.56,2.14.78,4.18,1.16,6.13,1.16s3.72-.34,5.62-1.02c1.89-.68,3.69-1.62,5.4-2.83,1.7-1.21,3.23-2.64,4.6-4.29,1.36-1.65,2.48-3.44,3.35-5.38v-11.19Z"/><polygon class="cls-2" points="243.2 168.01 243.2 168.02 243.2 168.02 243.2 168.01"/><polygon class="cls-2" points="278.93 108.54 278.93 108.54 278.93 108.53 278.93 108.54"/><path class="cls-2" d="m278.7,117.44c5.03-6.64,8.4-16.39,4.61-24.49-.44-.95-.99-1.93-1.7-2.61s-1.5-1.25-2.33-1.68c-.38-.2-.77-.37-1.17-.51-.36-.13-.98-.32-1.36-.31-.02,0,.05.08.06.08.06.06.12.11.18.17.14.13.27.27.39.42,2.24,2.67,3.37,6.51,3.57,10.23.22,4.06-.9,7.61-2.67,11.02-1.63,3.12-3.72,5.61-6.09,7.92-3.44,3.34-7.47,5.94-11.43,8.6-3.28,2.2-6.55,4.64-9.64,7.17-2.33,1.91-4.77,3.67-6.91,5.9-2.02,2.11-3.8,4.57-5.13,7.37-2.02,4.25-2.96,9.32-2.22,14.13.58,3.73,2.16,7.23,4.47,9.84s5.31,4.33,8.46,4.82c-.31-.05-.83-.71-1.08-.94-.4-.36-.79-.74-1.17-1.12-.74-.75-1.46-1.54-2.14-2.37-1.26-1.54-2.8-3.35-3.47-5.37-.25-.74-.46-1.48-.64-2.23-1.07-4.39-.61-9.04,1-13.18,1.01-2.59,2.47-4.93,4.26-6.82,1.91-2.02,3.81-3.95,5.96-5.62,2.68-2.09,5.5-3.92,8.25-5.9,4.27-3.07,9.04-5.76,12.9-9.32,1.91-1.5,3.62-3.25,5.09-5.19Z"/><polygon class="cls-2" points="227.72 87.82 227.73 87.82 227.73 87.82 227.72 87.82"/><polygon class="cls-2" points="228.2 87.29 228.2 87.29 228.2 87.29 228.2 87.29"/><polygon class="cls-2" points="255.61 125.27 255.61 125.27 255.61 125.27 255.61 125.27"/><polygon class="cls-2" points="250.41 126.41 250.41 126.41 250.41 126.41 250.41 126.41"/><polygon class="cls-2" points="268.85 81.08 268.85 81.08 268.85 81.08 268.85 81.08"/><polygon class="cls-2" points="289.81 85.03 289.81 85.03 289.81 85.03 289.81 85.03"/><polygon class="cls-2" points="253.88 118.28 253.88 118.28 253.88 118.28 253.88 118.28"/><polygon class="cls-2" points="287.36 89.68 287.36 89.68 287.36 89.68 287.36 89.68"/><path class="cls-2" d="m267.25,141.27h-14.9c-.86.64-1.7,1.3-2.55,1.97-.23.18-.45.37-.67.57h19.84c-.5-.87-1.08-1.72-1.73-2.54Z"/><path class="cls-2" d="m270.63,149.99h-24.91c-.1.18-.2.35-.29.53-.34.65-.62,1.32-.85,2.01h26.61c-.11-.86-.3-1.71-.55-2.54Z"/><path class="cls-2" d="m271.24,158.71h-27.26c-.01.85.06,1.7.22,2.54h26.24c.36-.82.63-1.67.8-2.54Z"/><path class="cls-2" d="m267.83,167.43h-21.94c.63.92,1.51,1.77,2.34,2.54h16.47c1.16-.72,2.21-1.58,3.13-2.54Z"/><path class="cls-2" d="m265.36,120.26c1.13-.71,2.22-1.46,3.26-2.26.12-.09.24-.18.35-.27h-14.77c.37.87.83,1.72,1.37,2.54h9.79Z"/><path class="cls-2" d="m274.15,111.54c.6-.84,1.18-1.68,1.69-2.54h-23.06c-.03.84.01,1.69.13,2.54h21.24Z"/><path class="cls-2" d="m277.59,102.22c.08-.65.09-1.29.06-1.94h-22.94c-.44.82-.81,1.67-1.09,2.54h23.88c.04-.2.07-.4.09-.6Z"/><path class="cls-2" d="m276.44,92.43c-.12-.29-.25-.58-.39-.87h-15c-1.18.77-2.23,1.62-3.16,2.54h19.15c-.18-.56-.39-1.12-.62-1.67Z"/><path class="cls-2" d="m234.66,146.7c.19.2.39.41.58.61.33-1.07.72-2.16,1.18-3.16.41-.9.86-1.77,1.35-2.61,0,0-4.06-4.16-4.41-4.57-4.28-5.04-8.21-11.53-9.53-18.65-1.38-7.4.02-15.57,4.22-21.91.58-.87,1.21-1.7,1.89-2.49,4.45-5.11,10.82-8.13,17.59-8.12,1.19,0,2.4.28,3.59.36,1.44-1.47,3.05-2.78,4.78-3.93-3.26-1.17-6.76-1.82-10.24-1.71-5.52.17-10.84,2.39-15.21,5.73-2.18,1.66-4.15,3.61-5.84,5.77-3.12,3.98-4.99,8.77-5.83,13.72-1.51,8.96.33,17.7,4.1,25.48,1.46,3.02,3.55,5.76,5.52,8.33,1.96,2.55,4.09,4.88,6.26,7.16Z"/><path class="cls-2" d="m275.98,141.66c-1.41-3.06-3.23-5.77-4.91-8.59-.49-.82-.99-1.64-1.49-2.45-1.17.66-3.38,2.42-3.46,2.47.92,1.34,1.58,2.39,2.45,3.78,1.57,2.52,2.84,5.19,4.09,7.94,1.17,2.59,1.91,5.48,2.15,8.44.38,4.73-.46,9.51-2.68,13.41-.38.67-.79,1.32-1.22,1.95-1.19,1.72-3.14,2.9-4.76,3.91-.87.55-1.76,1.04-2.67,1.48-.47.23-.94.44-1.42.64-.3.12-.97.57-1.28.49,3.11.77,6.42.29,9.32-1.37s5.36-4.48,6.93-7.93c2.02-4.45,2.53-9.83,1.78-14.84-.49-3.29-1.49-6.44-2.82-9.33Z"/><path class="cls-2" d="m303.73,108.04c-.4-3.19-1.26-6.33-2.57-9.27-4.59-10.35-14.23-17.86-25.72-18.26-10.18-.35-21.02,4.95-26.44,13.67-5.58,8.98-4.86,21.01.12,30.08.63,1.14,2.41,3.6,2.46,3.64.08.06,4.02-2.76,4.02-2.82-.07-.08-.13-.16-.2-.24-.01-.01-.03-.03-.04-.04,0,0-.01-.01-.01-.01-.02-.02-.03-.03-.05-.05-2.23-2.48-3.8-5.52-4.69-8.72-2.88-10.32,1.07-21.74,10.47-27.26,2.98-1.75,6.17-2.54,9.54-3.15,2.9-.53,5.89-.35,8.74.38,10.42,2.66,17.62,11.62,19.03,22.09.22,1.66.31,3.35.25,5.03-.39,11.81-7.64,21.54-15.45,29.74-.67.7-1.35,1.56-2.08,2.35.53,1.67.94,3.39,1.2,5.16.08.55.15,1.1.2,1.66,3.44-3.59,7.06-6.95,10.1-10.96,6.18-8.15,11.06-17.58,11.36-27.81.05-1.71-.03-3.44-.25-5.19Z"/></svg>