<?xml version="1.0" encoding="UTF-8"?><svg id="Layer_1" xmlns="http://www.w3.org/2000/svg" viewBox="0 0 500 500"><defs><style>.cls-1{fill:#fff;}</style></defs><polygon class="cls-1" points="202.1 354.79 202.1 354.8 202.1 354.8 202.1 354.79"/><polygon class="cls-1" points="295.45 199.4 295.45 199.4 295.46 199.39 295.45 199.4"/><path class="cls-1" d="m294.83,222.67c13.15-17.36,21.94-42.83,12.06-63.99-1.16-2.49-2.58-5.04-4.45-6.83-1.85-1.78-3.91-3.26-6.1-4.39-1-.52-2.02-.96-3.07-1.33-.95-.33-2.56-.84-3.56-.82-.04,0,.14.2.15.22.15.15.31.29.46.44.36.34.7.71,1.02,1.1,5.86,6.96,8.8,17.01,9.32,26.72.57,10.6-2.34,19.89-6.99,28.8-4.26,8.16-9.71,14.65-15.91,20.68-8.98,8.73-19.51,15.53-29.87,22.47-8.57,5.74-17.11,12.11-25.19,18.73-6.1,4.99-12.47,9.59-18.05,15.41-5.29,5.51-9.93,11.95-13.4,19.25-5.28,11.11-7.75,24.34-5.8,36.91,1.51,9.75,5.66,18.89,11.67,25.72,6.02,6.83,13.87,11.3,22.1,12.59-.8-.13-2.17-1.85-2.82-2.45-1.04-.95-2.06-1.92-3.06-2.93-1.95-1.96-3.81-4.02-5.59-6.19-3.29-4.02-7.32-8.76-9.08-14.02-.64-1.92-1.2-3.87-1.68-5.84-2.8-11.47-1.59-23.61,2.61-34.43,2.63-6.77,6.45-12.87,11.12-17.82,4.98-5.27,9.96-10.31,15.58-14.69,7.01-5.47,14.37-10.25,21.54-15.41,11.16-8.01,23.62-15.06,33.71-24.34,4.98-3.93,9.46-8.5,13.29-13.56Z"/><polygon class="cls-1" points="161.66 145.27 161.67 145.27 161.67 145.27 161.66 145.27"/><polygon class="cls-1" points="162.91 143.88 162.92 143.88 162.92 143.87 162.91 143.88"/><polygon class="cls-1" points="234.52 243.12 234.52 243.12 234.52 243.12 234.52 243.12"/><polygon class="cls-1" points="220.94 246.08 220.94 246.08 220.94 246.08 220.94 246.08"/><polygon class="cls-1" points="269.12 127.66 269.12 127.65 269.12 127.65 269.12 127.66"/><polygon class="cls-1" points="323.86 137.97 323.87 137.97 323.87 137.97 323.86 137.97"/><polygon class="cls-1" points="230.01 224.85 230.01 224.84 230 224.84 230.01 224.85"/><polygon class="cls-1" points="317.47 150.14 317.47 150.14 317.47 150.14 317.47 150.14"/><path class="cls-1" d="m264.93,284.93h-38.92c-2.25,1.66-4.45,3.39-6.65,5.15-.6.48-1.19.98-1.76,1.49h51.84c-1.32-2.28-2.82-4.5-4.51-6.63Z"/><path class="cls-1" d="m273.77,307.71h-65.09c-.26.46-.51.92-.76,1.39-.88,1.71-1.62,3.46-2.23,5.24h69.52c-.3-2.24-.79-4.46-1.44-6.63Z"/><path class="cls-1" d="m275.35,330.48h-71.23c-.04,2.22.15,4.43.58,6.63h68.56c.94-2.14,1.65-4.36,2.08-6.63Z"/><path class="cls-1" d="m266.43,353.26h-57.32c1.65,2.4,3.93,4.62,6.1,6.63h43.04c3.03-1.88,5.78-4.12,8.18-6.63Z"/><path class="cls-1" d="m260,230.02c2.95-1.86,5.8-3.81,8.51-5.92.31-.24.61-.48.92-.72h-38.59c.97,2.28,2.17,4.51,3.59,6.63h25.57Z"/><path class="cls-1" d="m282.95,207.24c1.58-2.19,3.09-4.39,4.41-6.63h-60.26c-.08,2.2.04,4.42.35,6.63h55.5Z"/><path class="cls-1" d="m291.94,182.88c.2-1.69.25-3.37.16-5.06h-59.94c-1.16,2.15-2.12,4.37-2.86,6.63h62.39c.1-.52.18-1.05.24-1.58Z"/><path class="cls-1" d="m288.93,157.31c-.31-.75-.64-1.51-1.01-2.26h-39.18c-3.07,2.01-5.82,4.24-8.24,6.63h50.04c-.48-1.47-1.02-2.93-1.61-4.37Z"/><path class="cls-1" d="m179.79,299.09c.51.53,1.01,1.07,1.52,1.6.85-2.8,1.89-5.64,3.07-8.26,1.06-2.36,2.25-4.63,3.54-6.82-.01.03-10.6-10.87-11.53-11.95-11.19-13.17-21.45-30.13-24.91-48.71-3.6-19.33.04-40.67,11.03-57.23,1.51-2.27,3.16-4.45,4.95-6.51,11.63-13.36,28.27-21.25,45.96-21.22,3.1,0,6.27.74,9.37.94,3.77-3.83,7.98-7.27,12.5-10.27-8.52-3.05-17.67-4.76-26.75-4.48-14.43.44-28.31,6.25-39.75,14.98-5.7,4.35-10.83,9.43-15.25,15.07-8.15,10.39-13.04,22.91-15.22,35.83-3.96,23.4.86,46.23,10.71,66.57,3.82,7.88,9.27,15.06,14.42,21.76,5.13,6.67,10.69,12.75,16.35,18.72Z"/><path class="cls-1" d="m287.74,285.94c-3.68-7.98-8.44-15.08-12.82-22.45-1.27-2.14-2.57-4.27-3.89-6.4-3.05,1.73-8.83,6.32-9.05,6.45,2.4,3.49,4.12,6.25,6.39,9.88,4.1,6.58,7.42,13.55,10.68,20.75,3.06,6.76,4.99,14.31,5.61,22.05,1,12.37-1.21,24.84-7,35.05-.99,1.75-2.06,3.45-3.2,5.09-3.11,4.5-8.21,7.57-12.43,10.21-2.28,1.43-4.61,2.72-6.99,3.88-1.22.59-2.45,1.15-3.7,1.66-.78.32-2.55,1.48-3.34,1.29,8.13,2.02,16.78.75,24.34-3.58,7.56-4.33,14-11.69,18.1-20.72,5.29-11.63,6.6-25.69,4.66-38.77-1.27-8.6-3.89-16.82-7.37-24.38Z"/><path class="cls-1" d="m360.24,198.11c-1.05-8.34-3.3-16.54-6.71-24.23-11.99-27.04-37.18-46.67-67.19-47.7-26.58-.91-54.91,12.93-69.07,35.72-14.58,23.47-12.71,54.9.32,78.6,1.64,2.98,6.29,9.41,6.43,9.52.2.16,10.5-7.22,10.5-7.38-.17-.21-.35-.42-.52-.62-.04-.04-.07-.08-.11-.12,0,0-.03-.03-.03-.03-.04-.04-.08-.09-.13-.13-5.82-6.48-9.93-14.42-12.27-22.79-7.52-26.95,2.79-56.81,27.36-71.22,7.79-4.57,16.12-6.63,24.92-8.23,7.57-1.38,15.4-.91,22.84.98,27.23,6.94,46.04,30.36,49.72,57.71.59,4.35.81,8.75.66,13.13-1.02,30.85-19.96,56.28-40.36,77.69-1.75,1.84-3.53,4.08-5.43,6.14,1.38,4.35,2.46,8.86,3.14,13.47.21,1.43.38,2.88.52,4.33,9-9.39,18.46-18.16,26.39-28.62,16.15-21.3,28.89-45.92,29.67-72.67.13-4.46-.07-8.98-.65-13.55Z"/></svg>